<svg width="1370.087891" height="4155.000000" viewBox="0 0 1370.09 4155" fill="none" xmlns="http://www.w3.org/2000/svg" xmlns:xlink="http://www.w3.org/1999/xlink">
	<desc>
			Created with Pixso.
	</desc>
	<defs/>
	<path id="Star 6" d="M1324.17 853.4L1298.27 860.27L1322.4 871.91L1329.28 897.81L1340.92 873.68L1366.82 866.81L1342.68 855.16L1335.81 829.26L1324.17 853.4ZM1335.54 832.13L1324.87 854.25L1301.14 860.54L1323.25 871.21L1329.55 894.95L1340.22 872.83L1363.95 866.53L1341.84 855.87L1335.54 832.13Z" fill="#BCEC30" fill-opacity="1.000000" fill-rule="evenodd"/>
	<path id="Star 7" d="M1267.48 807.31L1254.17 810.43L1266.31 816.73L1269.43 830.04L1275.73 817.9L1289.04 814.77L1276.9 808.48L1273.77 795.16L1267.48 807.31ZM1273.42 798.02L1268.16 808.17L1257.03 810.79L1267.18 816.05L1269.79 827.18L1275.05 817.03L1286.18 814.41L1276.03 809.15L1273.42 798.02Z" fill="#BCEC30" fill-opacity="1.000000" fill-rule="evenodd"/>
	<path id="Star 8" d="M1319.18 4091.18L1294 4100.5L1319.18 4109.81L1328.5 4135L1337.82 4109.81L1363 4100.5L1337.82 4091.18L1328.5 4066L1319.18 4091.18ZM1328.5 4068.88L1319.96 4091.96L1296.88 4100.5L1319.96 4109.04L1328.5 4132.12L1337.04 4109.04L1360.12 4100.5L1337.04 4091.96L1328.5 4068.88Z" fill="#BCEC30" fill-opacity="1.000000" fill-rule="evenodd"/>
	<path id="Star 10" d="M1238.96 4128.96L1224 4134.5L1238.96 4140.04L1244.5 4155L1250.04 4140.04L1265 4134.5L1250.04 4128.96L1244.5 4114L1238.96 4128.96ZM1244.5 4116.88L1239.74 4129.74L1226.88 4134.5L1239.74 4139.25L1244.5 4152.12L1249.26 4139.25L1262.12 4134.5L1249.26 4129.74L1244.5 4116.88Z" fill="#BCEC30" fill-opacity="1.000000" fill-rule="evenodd"/>
</svg>
