<svg width="1717.402344" height="51.339111" viewBox="0 0 1717.4 51.3391" fill="none" xmlns="http://www.w3.org/2000/svg" xmlns:xlink="http://www.w3.org/1999/xlink">
	<desc>
			Created with Pixso.
	</desc>
	<defs>
		<filter id="filter_2_4_dd" x="0.000977" y="0.000000" width="1717.402954" height="51.339134" filterUnits="userSpaceOnUse" color-interpolation-filters="sRGB">
			<feFlood flood-opacity="0" result="BackgroundImageFix"/>
			<feGaussianBlur in="BackgroundImage" stdDeviation="8.9533"/>
			<feComposite in2="SourceAlpha" operator="in" result="effect_backgroundBlur_1"/>
			<feBlend mode="normal" in="SourceGraphic" in2="effect_backgroundBlur_1" result="shape"/>
		</filter>
		<clipPath id="clip2_3">
			<rect id="svg" width="1717.402344" height="51.339111" fill="white" fill-opacity="0"/>
		</clipPath>
	</defs>
	<rect width="1717.402344" height="51.339111" fill="#1A1A1A"/>
	<g clip-path="url(#clip2_3)">
		<g filter="url(#filter_2_4_dd)">
			<rect id="Frame 2043683043" x="0.269531" y="0.268600" rx="-0.268599" width="1716.865845" height="50.801933" fill="#BCEC30" fill-opacity="1.000000"/>
			<mask id="mask2_8" mask-type="alpha" maskUnits="userSpaceOnUse" x="0.269531" y="0.268600" width="1716.865845" height="50.801933">
				<rect id="Frame 2043683043" x="0.269531" y="0.268600" rx="-0.268599" width="1716.865845" height="50.801933" fill="#000000" fill-opacity="1.000000"/>
			</mask>
			<g mask="url(#mask2_8)">
				<path id="Викторина" d="M76.85 30.6C77.69 30.99 78.63 31.19 79.66 31.19C80.7 31.19 81.64 30.99 82.49 30.59C82.59 30.54 82.69 30.49 82.79 30.44C83.35 30.13 83.83 29.76 84.25 29.33C84.53 29.03 84.77 28.71 84.99 28.36C85.13 28.12 85.26 27.86 85.37 27.6C85.65 26.92 85.79 26.18 85.79 25.39C85.79 24.61 85.65 23.88 85.38 23.21C85.26 22.94 85.13 22.68 84.99 22.43C84.77 22.07 84.52 21.74 84.24 21.45C83.82 21.01 83.34 20.65 82.79 20.36C82.68 20.29 82.57 20.24 82.47 20.2C81.62 19.79 80.68 19.6 79.66 19.6C78.64 19.6 77.71 19.79 76.87 20.18C76.75 20.23 76.63 20.29 76.51 20.36C75.95 20.66 75.46 21.03 75.04 21.48C74.76 21.76 74.52 22.08 74.32 22.43C74.18 22.66 74.06 22.9 73.96 23.16C73.67 23.84 73.53 24.59 73.53 25.39C73.53 26.2 73.67 26.96 73.97 27.66C74.07 27.9 74.18 28.13 74.32 28.36C74.52 28.7 74.76 29.02 75.03 29.3C75.45 29.75 75.94 30.13 76.51 30.44C76.62 30.5 76.73 30.55 76.85 30.6ZM34.71 26.14C34.34 25.68 33.82 25.36 33.15 25.16C33.57 24.95 33.91 24.68 34.17 24.35C34.22 24.29 34.27 24.22 34.31 24.16C34.37 24.06 34.43 23.96 34.48 23.86C34.64 23.5 34.73 23.11 34.73 22.69C34.73 22.17 34.61 21.72 34.39 21.34C34.21 21.03 33.96 20.77 33.64 20.55C32.91 20.04 31.9 19.79 30.6 19.79L25.39 19.79L25.39 31L30.91 31C32.3 31 33.37 30.72 34.13 30.16C34.45 29.92 34.7 29.65 34.89 29.33C35.13 28.91 35.26 28.41 35.26 27.84C35.26 27.3 35.14 26.83 34.91 26.43C34.85 26.33 34.78 26.22 34.71 26.14ZM40.52 19.79L37.95 19.79L37.95 31L40.39 31L45.74 23.71L45.74 31L48.3 31L48.3 19.79L45.87 19.79L40.52 27.09L40.52 19.79ZM54.27 26.48L56.06 26.48L58.97 31L61.91 31L58.14 25.2L61.8 19.79L59.07 19.79L56.12 24.32L54.27 24.32L54.27 19.79L51.69 19.79L51.69 31L54.27 31L54.27 26.48ZM68.62 21.91L72.2 21.91L72.2 19.79L62.49 19.79L62.49 21.91L66.06 21.91L66.06 31L68.62 31L68.62 21.91ZM95.86 20.29C95.12 19.96 94.26 19.79 93.27 19.79L88.43 19.79L88.43 31L91.02 31L91.02 27.91L93.27 27.91C94.26 27.91 95.12 27.74 95.86 27.42C96.43 27.16 96.9 26.82 97.27 26.39C97.37 26.27 97.46 26.14 97.54 26.01C97.6 25.92 97.65 25.83 97.7 25.74C97.99 25.19 98.14 24.56 98.14 23.86C98.14 23.11 97.98 22.45 97.66 21.89C97.62 21.82 97.58 21.76 97.54 21.7C97.46 21.58 97.38 21.47 97.3 21.37C96.92 20.91 96.44 20.55 95.86 20.29ZM103.07 19.79L100.49 19.79L100.49 31L102.94 31L108.28 23.71L108.28 31L110.84 31L110.84 19.79L108.41 19.79L103.07 27.09L103.07 19.79ZM124.54 31L124.54 19.79L121.95 19.79L121.95 24.21L116.86 24.21L116.86 19.79L114.27 19.79L114.27 31L116.86 31L116.86 26.4L121.95 26.4L121.95 31L124.54 31ZM130.36 28.6L135.56 28.6L136.56 31L139.27 31L134.27 19.79L131.71 19.79L126.72 31L129.37 31L130.36 28.6ZM30.38 24.44L27.96 24.44L27.96 21.71L30.38 21.71C30.93 21.71 31.35 21.83 31.65 22.07C31.74 22.14 31.82 22.22 31.88 22.32C32.02 22.52 32.09 22.77 32.09 23.07C32.09 23.41 32.01 23.68 31.85 23.9C31.79 23.97 31.73 24.03 31.66 24.09C31.37 24.32 30.94 24.44 30.38 24.44ZM81.05 28.72C80.62 28.89 80.16 28.98 79.66 28.98C79.14 28.98 78.67 28.89 78.24 28.71C78.11 28.65 77.99 28.59 77.87 28.52C77.62 28.38 77.4 28.21 77.2 28.03C76.97 27.8 76.77 27.54 76.61 27.25C76.58 27.2 76.55 27.15 76.53 27.1C76.27 26.59 76.15 26.02 76.15 25.39C76.15 24.77 76.27 24.21 76.52 23.71C76.54 23.65 76.57 23.59 76.61 23.54C76.78 23.23 76.99 22.96 77.23 22.74C77.41 22.56 77.63 22.4 77.87 22.27C77.99 22.19 78.11 22.13 78.24 22.08C78.67 21.9 79.14 21.81 79.66 21.81C80.16 21.81 80.62 21.89 81.05 22.07C81.19 22.13 81.32 22.19 81.45 22.27C81.68 22.4 81.89 22.56 82.09 22.74C82.33 22.96 82.53 23.23 82.71 23.54C82.74 23.59 82.77 23.65 82.8 23.71C83.04 24.21 83.17 24.77 83.17 25.39C83.17 26.02 83.04 26.59 82.79 27.1C82.76 27.15 82.73 27.2 82.71 27.25C82.54 27.54 82.34 27.8 82.12 28.03C81.92 28.21 81.69 28.38 81.45 28.52C81.32 28.59 81.19 28.66 81.05 28.72ZM94.9 25.29C94.5 25.63 93.91 25.8 93.13 25.8L91.02 25.8L91.02 21.91L93.13 21.91C93.91 21.91 94.5 22.07 94.9 22.41C95.01 22.5 95.11 22.6 95.19 22.71C95.4 23.01 95.51 23.4 95.51 23.86C95.51 24.3 95.4 24.67 95.2 24.97C95.12 25.09 95.02 25.19 94.9 25.29ZM132.97 22.34L134.75 26.63L131.2 26.63L132.97 22.34ZM32.37 28.53C32.08 28.89 31.56 29.07 30.81 29.07L27.96 29.07L27.96 26.24L30.81 26.24C31.57 26.24 32.1 26.42 32.39 26.8C32.55 27.01 32.64 27.29 32.64 27.64C32.64 28 32.55 28.3 32.37 28.53Z" fill="#202027" fill-opacity="1.000000" fill-rule="evenodd"/>
				<path id="Star" d="M177.06 16L174.45 23.05L167.39 25.66L174.45 28.28L177.06 35.33L179.67 28.28L186.73 25.66L179.67 23.05L177.06 16Z" fill="#202027" fill-opacity="1.000000" fill-rule="evenodd"/>
				<path id="угадай число" d="M278.97 18.15C279.46 18.76 280.34 19.07 281.6 19.07C282.63 19.07 283.4 18.86 283.92 18.45C284.04 18.35 284.15 18.23 284.25 18.11C284.54 17.72 284.69 17.23 284.7 16.62L282.93 16.62C282.91 16.95 282.82 17.21 282.66 17.41C282.44 17.61 282.02 17.79 281.6 17.79C281.12 17.79 280.77 17.68 280.55 17.44C280.37 17.24 280.27 16.97 280.27 16.62L278.49 16.62C278.5 17.25 278.66 17.76 278.97 18.15ZM324.41 30.66C325.21 31.01 326.1 31.19 327.07 31.19C328.04 31.19 328.92 31.01 329.71 30.67C330.17 30.47 330.6 30.21 330.98 29.9C331.24 29.68 331.48 29.45 331.7 29.19L330.03 27.65C329.61 28.14 329.13 28.5 328.6 28.72C328.17 28.89 327.71 28.98 327.22 28.98C326.6 28.98 326.03 28.85 325.53 28.61C325.47 28.58 325.42 28.55 325.36 28.52C325.08 28.36 324.83 28.18 324.62 27.96C324.41 27.75 324.23 27.51 324.09 27.25C324.05 27.2 324.03 27.15 324.01 27.1C323.75 26.59 323.63 26.02 323.63 25.39C323.63 24.77 323.75 24.21 324 23.71C324.02 23.65 324.05 23.59 324.09 23.54C324.24 23.26 324.42 23.01 324.64 22.8C324.85 22.59 325.09 22.41 325.36 22.27C325.42 22.23 325.47 22.2 325.53 22.18C326.03 21.93 326.6 21.81 327.22 21.81C327.72 21.81 328.19 21.9 328.62 22.08C329.14 22.29 329.61 22.64 330.03 23.12L331.7 21.59C331.49 21.34 331.27 21.12 331.03 20.92C330.63 20.59 330.2 20.32 329.72 20.12C328.93 19.77 328.05 19.6 327.09 19.6C326.08 19.6 325.16 19.79 324.33 20.17C324.21 20.23 324.09 20.29 323.97 20.35C323.45 20.63 322.99 20.97 322.6 21.38C322.29 21.68 322.02 22.03 321.8 22.41C321.68 22.61 321.57 22.81 321.49 23.01C321.17 23.73 321.01 24.53 321.01 25.39C321.01 26.25 321.16 27.04 321.48 27.76C321.57 27.97 321.68 28.18 321.8 28.38C322.02 28.75 322.29 29.09 322.59 29.4C322.98 29.81 323.44 30.16 323.97 30.44C324.11 30.52 324.26 30.59 324.41 30.66ZM349.72 30.6C350.56 30.99 351.5 31.19 352.53 31.19C353.57 31.19 354.51 30.99 355.36 30.59C355.46 30.54 355.56 30.49 355.66 30.44C356.22 30.13 356.7 29.76 357.12 29.33C357.4 29.03 357.64 28.71 357.85 28.36C358 28.12 358.13 27.86 358.24 27.6C358.52 26.92 358.66 26.18 358.66 25.39C358.66 24.61 358.52 23.88 358.25 23.21C358.13 22.94 358 22.68 357.85 22.43C357.63 22.07 357.39 21.74 357.11 21.45C356.69 21.01 356.21 20.65 355.66 20.36C355.55 20.29 355.44 20.24 355.34 20.2C354.49 19.79 353.55 19.6 352.53 19.6C351.51 19.6 350.58 19.79 349.74 20.18C349.62 20.23 349.5 20.29 349.38 20.36C348.82 20.66 348.33 21.03 347.91 21.48C347.63 21.76 347.39 22.08 347.19 22.43C347.05 22.66 346.93 22.9 346.83 23.16C346.54 23.84 346.4 24.59 346.4 25.39C346.4 26.2 346.54 26.96 346.83 27.66C346.93 27.9 347.05 28.13 347.19 28.36C347.39 28.7 347.63 29.02 347.9 29.3C348.32 29.75 348.81 30.13 349.38 30.44C349.49 30.5 349.6 30.55 349.72 30.6ZM220.86 28.66L225.63 19.79L223.09 19.79L220.02 25.81L217.04 19.79L214.27 19.79L218.69 28.02L218.59 28.15C218.37 28.47 218.14 28.72 217.89 28.88C217.82 28.92 217.75 28.95 217.69 28.98C217.48 29.06 217.26 29.11 217.02 29.11C216.72 29.11 216.35 29.04 215.91 28.9L215.28 30.87C215.91 31.12 216.52 31.25 217.1 31.25C217.42 31.25 217.74 31.21 218.04 31.13C218.44 31.02 218.83 30.84 219.21 30.6C219.85 30.16 220.4 29.51 220.86 28.66ZM230.07 21.91L235.39 21.91L235.41 19.79L227.5 19.79L227.5 31L230.08 31L230.07 21.91ZM237.84 28.6L243.04 28.6L244.03 31L246.75 31L241.74 19.79L239.19 19.79L234.19 31L236.85 31L237.84 28.6ZM260.53 33.32L260.53 28.88L258.96 28.88L258.96 19.79L250.35 19.79L250.22 23.3C250.16 25.08 249.99 26.45 249.71 27.41C249.49 28.14 249.17 28.6 248.73 28.79C248.59 28.84 248.45 28.87 248.29 28.88L247.84 28.88L247.82 33.32L250.22 33.32L250.22 31L258.13 31L258.13 33.32L260.53 33.32ZM265.39 28.6L270.59 28.6L271.59 31L274.3 31L269.3 19.79L266.74 19.79L261.75 31L264.4 31L265.39 28.6ZM279.01 19.79L276.43 19.79L276.43 31L278.88 31L284.22 23.71L284.22 31L286.78 31L286.78 19.79L284.35 19.79L279.01 27.09L279.01 19.79ZM304.58 31L304.58 19.79L302.01 19.79L302.01 24.83C301.81 24.91 301.62 24.99 301.42 25.06C300.84 25.24 300.24 25.33 299.62 25.33C298.84 25.33 298.24 25.13 297.83 24.75C297.47 24.36 297.21 23.72 297.21 23.01L297.21 19.79L294.66 19.79L294.66 23.3C294.66 24.41 294.93 25.31 295.47 26C295.58 26.14 295.71 26.28 295.85 26.41C296.65 27.13 297.8 27.49 299.31 27.49C300.14 27.49 301.04 27.31 302.01 26.96L302.01 31L304.58 31ZM310.58 19.79L308 19.79L308 31L310.45 31L315.79 23.71L315.79 31L318.35 31L318.35 19.79L315.92 19.79L310.58 27.09L310.58 19.79ZM343.74 31L343.74 19.79L335.14 19.79L334.98 24.34C334.91 25.89 334.75 27.03 334.51 27.77C334.35 28.25 334.11 28.57 333.79 28.74C333.62 28.82 333.43 28.87 333.22 28.87C333.04 28.87 332.89 28.84 332.75 28.8L332.59 31C333.09 31.11 333.51 31.17 333.87 31.17C334.53 31.17 335.07 31.01 335.51 30.7C335.63 30.6 335.75 30.5 335.86 30.38C336.34 29.85 336.68 29.09 336.88 28.11C337.08 27.12 337.2 25.83 337.26 24.24L337.34 21.91L341.18 21.91L341.18 31L343.74 31ZM353.92 28.72C353.49 28.89 353.03 28.98 352.53 28.98C352.01 28.98 351.54 28.89 351.11 28.71C350.98 28.65 350.86 28.59 350.74 28.52C350.49 28.38 350.27 28.21 350.07 28.03C349.84 27.8 349.64 27.54 349.48 27.25C349.45 27.2 349.42 27.15 349.4 27.1C349.14 26.59 349.02 26.02 349.02 25.39C349.02 24.77 349.14 24.21 349.39 23.71C349.41 23.65 349.44 23.59 349.48 23.54C349.64 23.23 349.85 22.96 350.1 22.74C350.28 22.56 350.5 22.4 350.74 22.27C350.86 22.19 350.98 22.13 351.11 22.08C351.54 21.9 352.01 21.81 352.53 21.81C353.03 21.81 353.49 21.89 353.92 22.07C354.06 22.13 354.19 22.19 354.32 22.27C354.55 22.4 354.76 22.56 354.96 22.74C355.2 22.96 355.4 23.23 355.58 23.54C355.61 23.59 355.64 23.65 355.67 23.71C355.91 24.21 356.03 24.77 356.03 25.39C356.03 26.02 355.9 26.59 355.66 27.1C355.63 27.15 355.6 27.2 355.58 27.25C355.41 27.54 355.21 27.8 354.99 28.03C354.79 28.21 354.56 28.38 354.32 28.52C354.19 28.59 354.06 28.66 353.92 28.72ZM252.17 26.89C252.34 25.99 252.45 24.87 252.51 23.54L252.56 21.91L256.4 21.91L256.4 28.88L251.39 28.88C251.74 28.45 252 27.79 252.17 26.89ZM240.45 22.34L242.22 26.63L238.67 26.63L240.45 22.34ZM268 22.34L269.78 26.63L266.23 26.63L268 22.34Z" fill="#202027" fill-opacity="1.000000" fill-rule="evenodd"/>
				<path id="Star" d="M397.2 16L394.58 23.05L387.53 25.66L394.58 28.28L397.2 35.33L399.81 28.28L406.86 25.66L399.81 23.05L397.2 16Z" fill="#202027" fill-opacity="1.000000" fill-rule="evenodd"/>
				<path id="Переверни текст" d="M589.73 30.66C590.53 31.01 591.42 31.19 592.39 31.19C593.36 31.19 594.24 31.01 595.03 30.67C595.49 30.47 595.92 30.21 596.3 29.9C596.56 29.68 596.79 29.45 597.01 29.19L595.35 27.65C594.93 28.14 594.45 28.5 593.92 28.72C593.49 28.89 593.03 28.98 592.53 28.98C591.91 28.98 591.35 28.85 590.85 28.61C590.79 28.58 590.73 28.55 590.68 28.52C590.4 28.36 590.15 28.18 589.94 27.96C589.73 27.75 589.55 27.51 589.4 27.25C589.37 27.2 589.35 27.15 589.33 27.1C589.07 26.59 588.95 26.02 588.95 25.39C588.95 24.77 589.07 24.21 589.31 23.71C589.34 23.65 589.37 23.59 589.4 23.54C589.56 23.26 589.74 23.01 589.96 22.8C590.17 22.59 590.41 22.41 590.68 22.27C590.73 22.23 590.79 22.2 590.85 22.18C591.35 21.93 591.91 21.81 592.53 21.81C593.03 21.81 593.5 21.9 593.94 22.08C594.46 22.29 594.93 22.64 595.35 23.12L597.01 21.59C596.81 21.34 596.58 21.12 596.34 20.92C595.95 20.59 595.52 20.32 595.04 20.12C594.25 19.77 593.37 19.6 592.4 19.6C591.4 19.6 590.48 19.79 589.65 20.17C589.53 20.23 589.41 20.29 589.29 20.35C588.77 20.63 588.31 20.97 587.91 21.38C587.61 21.68 587.34 22.03 587.12 22.41C587 22.61 586.89 22.81 586.8 23.01C586.48 23.73 586.33 24.53 586.33 25.39C586.33 26.25 586.48 27.04 586.8 27.76C586.89 27.97 587 28.18 587.12 28.38C587.34 28.75 587.6 29.09 587.9 29.4C588.3 29.81 588.76 30.16 589.29 30.44C589.43 30.52 589.58 30.59 589.73 30.66ZM445.86 31L445.86 19.79L435.65 19.79L435.65 31L438.23 31L438.23 21.91L443.29 21.91L443.29 31L445.86 31ZM457.96 31L457.96 28.92L451.86 28.92L451.86 26.32L457.06 26.32L457.06 24.31L451.86 24.31L451.86 21.87L457.75 21.87L457.75 19.79L449.28 19.79L449.28 31L457.96 31ZM468.12 20.29C467.39 19.96 466.53 19.79 465.54 19.79L460.69 19.79L460.69 31L463.29 31L463.29 27.91L465.54 27.91C466.53 27.91 467.39 27.74 468.12 27.42C468.69 27.16 469.16 26.82 469.53 26.39C469.63 26.27 469.72 26.14 469.81 26.01C469.86 25.92 469.91 25.83 469.97 25.74C470.25 25.19 470.4 24.56 470.4 23.86C470.4 23.11 470.24 22.45 469.92 21.89C469.88 21.82 469.85 21.76 469.81 21.7C469.73 21.58 469.65 21.47 469.57 21.37C469.19 20.91 468.71 20.55 468.12 20.29ZM481.43 31L481.43 28.92L475.33 28.92L475.33 26.32L480.53 26.32L480.53 24.31L475.33 24.31L475.33 21.87L481.22 21.87L481.22 19.79L472.76 19.79L472.76 31L481.43 31ZM493.49 26.14C493.12 25.68 492.6 25.36 491.93 25.16C492.35 24.95 492.69 24.68 492.95 24.35C493 24.29 493.05 24.22 493.09 24.16C493.15 24.06 493.21 23.96 493.26 23.86C493.42 23.5 493.51 23.11 493.51 22.69C493.51 22.17 493.39 21.72 493.17 21.34C492.99 21.03 492.74 20.77 492.42 20.55C491.69 20.04 490.68 19.79 489.38 19.79L484.16 19.79L484.16 31L489.68 31C491.08 31 492.15 30.72 492.91 30.16C493.23 29.92 493.48 29.65 493.67 29.33C493.91 28.91 494.04 28.41 494.04 27.84C494.04 27.3 493.92 26.83 493.69 26.43C493.63 26.33 493.56 26.22 493.49 26.14ZM505.4 31L505.4 28.92L499.3 28.92L499.3 26.32L504.5 26.32L504.5 24.31L499.3 24.31L499.3 21.87L505.19 21.87L505.19 19.79L496.72 19.79L496.72 31L505.4 31ZM515.56 20.29C514.83 19.96 513.97 19.79 512.98 19.79L508.13 19.79L508.13 31L510.73 31L510.73 27.91L512.98 27.91C513.97 27.91 514.83 27.74 515.56 27.42C516.13 27.16 516.6 26.82 516.97 26.39C517.07 26.27 517.16 26.14 517.25 26.01C517.3 25.92 517.35 25.83 517.41 25.74C517.69 25.19 517.84 24.56 517.84 23.86C517.84 23.11 517.68 22.45 517.36 21.89C517.32 21.82 517.29 21.76 517.25 21.7C517.17 21.58 517.09 21.47 517.01 21.37C516.63 20.91 516.15 20.55 515.56 20.29ZM530.47 31L530.47 19.79L527.88 19.79L527.88 24.21L522.79 24.21L522.79 19.79L520.2 19.79L520.2 31L522.79 31L522.79 26.4L527.88 26.4L527.88 31L530.47 31ZM536.49 19.79L533.91 19.79L533.91 31L536.36 31L541.7 23.71L541.7 31L544.26 31L544.26 19.79L541.83 19.79L536.49 27.09L536.49 19.79ZM557.83 21.91L561.42 21.91L561.42 19.79L551.7 19.79L551.7 21.91L555.27 21.91L555.27 31L557.83 31L557.83 21.91ZM572.36 31L572.36 28.92L566.26 28.92L566.26 26.32L571.46 26.32L571.46 24.31L566.26 24.31L566.26 21.87L572.15 21.87L572.15 19.79L563.68 19.79L563.68 31L572.36 31ZM577.64 26.48L579.43 26.48L582.34 31L585.28 31L581.51 25.2L585.17 19.79L582.44 19.79L579.5 24.32L577.64 24.32L577.64 19.79L575.06 19.79L575.06 31L577.64 31L577.64 26.48ZM604.21 21.91L607.8 21.91L607.8 19.79L598.08 19.79L598.08 21.91L601.65 21.91L601.65 31L604.21 31L604.21 21.91ZM489.16 24.44L486.74 24.44L486.74 21.71L489.16 21.71C489.71 21.71 490.13 21.83 490.43 22.07C490.52 22.14 490.6 22.22 490.66 22.32C490.8 22.52 490.87 22.77 490.87 23.07C490.87 23.41 490.79 23.68 490.63 23.9C490.57 23.97 490.51 24.03 490.44 24.09C490.14 24.32 489.72 24.44 489.16 24.44ZM467.17 25.29C466.76 25.63 466.17 25.8 465.4 25.8L463.29 25.8L463.29 21.91L465.4 21.91C466.17 21.91 466.76 22.07 467.17 22.41C467.27 22.5 467.37 22.6 467.45 22.71C467.67 23.01 467.78 23.4 467.78 23.86C467.78 24.3 467.67 24.67 467.47 24.97C467.38 25.09 467.28 25.19 467.17 25.29ZM514.61 25.29C514.2 25.63 513.61 25.8 512.84 25.8L510.73 25.8L510.73 21.91L512.84 21.91C513.61 21.91 514.2 22.07 514.61 22.41C514.71 22.5 514.81 22.6 514.89 22.71C515.11 23.01 515.22 23.4 515.22 23.86C515.22 24.3 515.11 24.67 514.91 24.97C514.82 25.09 514.72 25.19 514.61 25.29ZM491.15 28.53C490.86 28.89 490.34 29.07 489.59 29.07L486.74 29.07L486.74 26.24L489.59 26.24C490.35 26.24 490.88 26.42 491.17 26.8C491.33 27.01 491.41 27.29 491.41 27.64C491.41 28 491.32 28.3 491.15 28.53Z" fill="#202027" fill-opacity="1.000000" fill-rule="evenodd"/>
				<path id="Star" d="M645.33 16L642.72 23.05L635.66 25.66L642.72 28.28L645.33 35.33L647.94 28.28L655 25.66L647.94 23.05L645.33 16Z" fill="#202027" fill-opacity="1.000000" fill-rule="evenodd"/>
				<path id="Простая арифметика" d="M828.43 27.9C828.87 27.19 829.1 26.34 829.1 25.36C829.1 24.42 828.89 23.61 828.48 22.93C828.24 22.54 827.95 22.19 827.59 21.89C826.58 21.03 825.13 20.55 823.24 20.45L823.24 19.32L820.86 19.32L820.86 20.46C818.96 20.58 817.5 21.06 816.5 21.9C816.15 22.18 815.86 22.51 815.64 22.87C815.2 23.56 814.99 24.39 814.99 25.36C814.99 26.3 815.19 27.11 815.61 27.8C815.84 28.18 816.14 28.52 816.5 28.83C817.5 29.67 818.96 30.15 820.86 30.26L820.86 31.49L823.24 31.49L823.24 30.28C825.13 30.18 826.58 29.7 827.59 28.86C827.92 28.57 828.2 28.25 828.43 27.9ZM712.18 30.6C713.02 30.99 713.96 31.19 714.99 31.19C716.02 31.19 716.96 30.99 717.82 30.59C717.92 30.54 718.02 30.49 718.12 30.44C718.68 30.13 719.16 29.76 719.58 29.33C719.85 29.03 720.09 28.71 720.31 28.36C720.46 28.12 720.59 27.86 720.7 27.6C720.97 26.92 721.11 26.18 721.11 25.39C721.11 24.61 720.97 23.88 720.71 23.21C720.59 22.94 720.46 22.68 720.31 22.43C720.09 22.07 719.85 21.74 719.57 21.45C719.15 21.01 718.67 20.65 718.12 20.36C718.01 20.29 717.9 20.24 717.8 20.2C716.95 19.79 716.01 19.6 714.99 19.6C713.97 19.6 713.04 19.79 712.2 20.18C712.08 20.23 711.96 20.29 711.84 20.36C711.27 20.66 710.78 21.03 710.37 21.48C710.09 21.76 709.85 22.08 709.65 22.43C709.51 22.66 709.38 22.9 709.28 23.16C709 23.84 708.86 24.59 708.86 25.39C708.86 26.2 709 26.96 709.29 27.66C709.39 27.9 709.51 28.13 709.65 28.36C709.85 28.7 710.09 29.02 710.36 29.3C710.78 29.75 711.27 30.13 711.84 30.44C711.95 30.5 712.06 30.55 712.18 30.6ZM726.39 30.66C727.19 31.01 728.08 31.19 729.05 31.19C730.02 31.19 730.9 31.01 731.69 30.67C732.15 30.47 732.58 30.21 732.96 29.9C733.22 29.68 733.46 29.45 733.68 29.19L732.01 27.65C731.59 28.14 731.11 28.5 730.58 28.72C730.15 28.89 729.69 28.98 729.19 28.98C728.57 28.98 728.01 28.85 727.51 28.61C727.45 28.58 727.4 28.55 727.34 28.52C727.06 28.36 726.81 28.18 726.6 27.96C726.39 27.75 726.21 27.51 726.07 27.25C726.03 27.2 726.01 27.15 725.99 27.1C725.73 26.59 725.61 26.02 725.61 25.39C725.61 24.77 725.73 24.21 725.98 23.71C726 23.65 726.03 23.59 726.07 23.54C726.22 23.26 726.4 23.01 726.62 22.8C726.83 22.59 727.07 22.41 727.34 22.27C727.4 22.23 727.45 22.2 727.51 22.18C728.01 21.93 728.57 21.81 729.19 21.81C729.69 21.81 730.16 21.9 730.6 22.08C731.12 22.29 731.59 22.64 732.01 23.12L733.68 21.59C733.47 21.34 733.25 21.12 733.01 20.92C732.61 20.59 732.18 20.32 731.7 20.12C730.91 19.77 730.03 19.6 729.07 19.6C728.06 19.6 727.14 19.79 726.31 20.17C726.19 20.23 726.07 20.29 725.95 20.35C725.43 20.63 724.97 20.97 724.57 21.38C724.27 21.68 724 22.03 723.78 22.41C723.66 22.61 723.55 22.81 723.47 23.01C723.15 23.73 722.99 24.53 722.99 25.39C722.99 26.25 723.14 27.04 723.46 27.76C723.55 27.97 723.66 28.18 723.78 28.38C724 28.75 724.27 29.09 724.57 29.4C724.96 29.81 725.42 30.16 725.95 30.44C726.09 30.52 726.24 30.59 726.39 30.66ZM694 31L694 19.79L683.79 19.79L683.79 31L686.36 31L686.36 21.91L691.42 21.91L691.42 31L694 31ZM704.85 20.29C704.11 19.96 703.25 19.79 702.27 19.79L697.42 19.79L697.42 31L700.01 31L700.01 27.91L702.27 27.91C703.25 27.91 704.11 27.74 704.85 27.42C705.42 27.16 705.89 26.82 706.26 26.39C706.36 26.27 706.45 26.14 706.53 26.01C706.59 25.92 706.64 25.83 706.69 25.74C706.98 25.19 707.13 24.56 707.13 23.86C707.13 23.11 706.97 22.45 706.65 21.89C706.61 21.82 706.57 21.76 706.53 21.7C706.45 21.58 706.37 21.47 706.29 21.37C705.92 20.91 705.44 20.55 704.85 20.29ZM740.87 21.91L744.46 21.91L744.46 19.79L734.75 19.79L734.75 21.91L738.32 21.91L738.32 31L740.87 31L740.87 21.91ZM748.56 28.6L753.76 28.6L754.75 31L757.47 31L752.46 19.79L749.9 19.79L744.91 31L747.56 31L748.56 28.6ZM767.96 31L767.96 19.79L763.13 19.79C762.15 19.79 761.29 19.96 760.57 20.29C760.03 20.54 759.59 20.87 759.24 21.27C759.11 21.41 758.99 21.57 758.89 21.74C758.51 22.35 758.3 23.12 758.3 23.97C758.3 24.82 758.49 25.55 758.87 26.17C758.97 26.31 759.1 26.5 759.22 26.63C759.59 27.05 760.07 27.38 760.65 27.62L758.31 31L761.05 31L763.03 28.02L765.4 28.02L765.4 31L767.96 31ZM778.96 28.6L784.16 28.6L785.15 31L787.87 31L782.86 19.79L780.3 19.79L775.31 31L777.96 31L778.96 28.6ZM797.42 20.29C796.69 19.96 795.83 19.79 794.84 19.79L789.99 19.79L789.99 31L792.59 31L792.59 27.91L794.84 27.91C795.83 27.91 796.69 27.74 797.42 27.42C798 27.16 798.47 26.82 798.83 26.39C798.93 26.27 799.02 26.14 799.11 26.01C799.17 25.92 799.22 25.83 799.27 25.74C799.55 25.19 799.7 24.56 799.7 23.86C799.7 23.11 799.54 22.45 799.22 21.89C799.18 21.82 799.15 21.76 799.11 21.7C799.03 21.58 798.95 21.47 798.87 21.37C798.49 20.91 798.01 20.55 797.42 20.29ZM804.64 19.79L802.06 19.79L802.06 31L804.51 31L809.85 23.71L809.85 31L812.41 31L812.41 19.79L809.98 19.79L804.64 27.09L804.64 19.79ZM841.85 24.29L841.86 31L844.3 31L844.28 19.79L842.14 19.79L838.01 26.76L833.82 19.79L831.67 19.79L831.67 31L834.11 31L834.11 24.42L837.4 29.81L838.56 29.81L841.85 24.29ZM856.39 31L856.39 28.92L850.3 28.92L850.3 26.32L855.5 26.32L855.5 24.31L850.3 24.31L850.3 21.87L856.19 21.87L856.19 19.79L847.72 19.79L847.72 31L856.39 31ZM864.11 21.91L867.69 21.91L867.69 19.79L857.98 19.79L857.98 21.91L861.55 21.91L861.55 31L864.11 31L864.11 21.91ZM872.54 19.79L869.96 19.79L869.96 31L872.41 31L877.75 23.71L877.75 31L880.31 31L880.31 19.79L877.88 19.79L872.54 27.09L872.54 19.79ZM886.28 26.48L888.07 26.48L890.99 31L893.93 31L890.16 25.2L893.82 19.79L891.08 19.79L888.14 24.32L886.28 24.32L886.28 19.79L883.71 19.79L883.71 31L886.28 31L886.28 26.48ZM897.95 28.6L903.15 28.6L904.14 31L906.86 31L901.85 19.79L899.29 19.79L894.3 31L896.96 31L897.95 28.6ZM716.38 28.72C715.95 28.89 715.49 28.98 714.99 28.98C714.47 28.98 714 28.89 713.57 28.71C713.44 28.65 713.32 28.59 713.2 28.52C712.95 28.38 712.73 28.21 712.53 28.03C712.29 27.8 712.1 27.54 711.94 27.25C711.91 27.2 711.88 27.15 711.86 27.1C711.6 26.59 711.48 26.02 711.48 25.39C711.48 24.77 711.6 24.21 711.85 23.71C711.87 23.65 711.9 23.59 711.94 23.54C712.1 23.23 712.31 22.96 712.56 22.74C712.74 22.56 712.96 22.4 713.2 22.27C713.32 22.19 713.44 22.13 713.57 22.08C714 21.9 714.47 21.81 714.99 21.81C715.49 21.81 715.95 21.89 716.38 22.07C716.52 22.13 716.65 22.19 716.78 22.27C717.01 22.4 717.22 22.56 717.42 22.74C717.66 22.96 717.86 23.23 718.04 23.54C718.06 23.59 718.09 23.65 718.13 23.71C718.37 24.21 718.49 24.77 718.49 25.39C718.49 26.02 718.36 26.59 718.12 27.1C718.09 27.15 718.06 27.2 718.04 27.25C717.87 27.54 717.67 27.8 717.44 28.03C717.24 28.21 717.02 28.38 716.78 28.52C716.65 28.59 716.52 28.66 716.38 28.72ZM703.89 25.29C703.49 25.63 702.9 25.8 702.12 25.8L700.01 25.8L700.01 21.91L702.12 21.91C702.9 21.91 703.49 22.07 703.89 22.41C704 22.5 704.1 22.6 704.18 22.71C704.39 23.01 704.5 23.4 704.5 23.86C704.5 24.3 704.39 24.67 704.19 24.97C704.11 25.09 704.01 25.19 703.89 25.29ZM761.51 22.42C761.89 22.08 762.45 21.91 763.19 21.91L765.4 21.91L765.4 25.97L763.13 25.97C762.4 25.97 761.85 25.79 761.48 25.44C761.42 25.39 761.37 25.34 761.33 25.28C761.05 24.94 760.92 24.49 760.92 23.94C760.92 23.36 761.06 22.91 761.35 22.58C761.39 22.52 761.45 22.47 761.51 22.42ZM796.47 25.29C796.06 25.63 795.47 25.8 794.7 25.8L792.59 25.8L792.59 21.91L794.7 21.91C795.47 21.91 796.06 22.07 796.47 22.41C796.57 22.5 796.67 22.6 796.75 22.71C796.97 23.01 797.08 23.4 797.08 23.86C797.08 24.3 796.97 24.67 796.77 24.97C796.68 25.09 796.58 25.19 796.47 25.29ZM751.17 22.34L752.94 26.63L749.39 26.63L751.17 22.34ZM781.57 22.34L783.34 26.63L779.79 26.63L781.57 22.34ZM900.56 22.34L902.33 26.63L898.78 26.63L900.56 22.34ZM817.89 26.84C817.63 26.43 817.5 25.94 817.5 25.36C817.5 24.69 817.66 24.14 817.98 23.72C818.08 23.58 818.19 23.46 818.32 23.35C818.87 22.89 819.72 22.6 820.86 22.5L820.86 28.24C819.38 28.08 818.39 27.62 817.89 26.84ZM825.77 27.37C825.21 27.84 824.37 28.13 823.24 28.24L823.24 22.5C824.69 22.62 825.67 23.06 826.18 23.82C826.46 24.23 826.6 24.74 826.6 25.35C826.6 26 826.44 26.54 826.14 26.97C826.03 27.11 825.91 27.25 825.77 27.37Z" fill="#202027" fill-opacity="1.000000" fill-rule="evenodd"/>
				<path id="Star" d="M944.46 16L941.85 23.05L934.79 25.66L941.85 28.28L944.46 35.33L947.07 28.28L954.13 25.66L947.07 23.05L944.46 16Z" fill="#202027" fill-opacity="1.000000" fill-rule="evenodd"/>
				<path id="Камень, ножницы, бумага" d="M1087.56 30.6C1088.41 30.99 1089.35 31.19 1090.38 31.19C1091.41 31.19 1092.36 30.99 1093.21 30.59C1093.31 30.54 1093.42 30.49 1093.52 30.44C1094.06 30.13 1094.56 29.76 1094.97 29.33C1095.25 29.03 1095.5 28.71 1095.71 28.36C1095.86 28.12 1095.98 27.86 1096.09 27.6C1096.37 26.92 1096.51 26.18 1096.51 25.39C1096.51 24.61 1096.37 23.88 1096.1 23.21C1095.99 22.94 1095.86 22.68 1095.71 22.43C1095.49 22.07 1095.24 21.74 1094.96 21.45C1094.55 21.01 1094.06 20.65 1093.52 20.36C1093.41 20.29 1093.3 20.24 1093.18 20.2C1092.35 19.79 1091.41 19.6 1090.38 19.6C1089.37 19.6 1088.43 19.79 1087.59 20.18C1087.47 20.23 1087.35 20.29 1087.23 20.36C1086.67 20.66 1086.18 21.03 1085.76 21.48C1085.49 21.76 1085.25 22.08 1085.04 22.43C1084.89 22.66 1084.77 22.9 1084.68 23.16C1084.39 23.84 1084.25 24.59 1084.25 25.39C1084.25 26.2 1084.39 26.96 1084.68 27.66C1084.79 27.9 1084.91 28.13 1085.04 28.36C1085.25 28.7 1085.48 29.02 1085.75 29.3C1086.17 29.75 1086.66 30.13 1087.23 30.44C1087.34 30.5 1087.44 30.55 1087.56 30.6ZM985.47 26.48L987.26 26.48L990.17 31L993.11 31L989.34 25.2L993 19.79L990.26 19.79L987.32 24.32L985.47 24.32L985.47 19.79L982.89 19.79L982.89 31L985.47 31L985.47 26.48ZM997.13 28.6L1002.33 28.6L1003.33 31L1006.04 31L1001.04 19.79L998.47 19.79L993.48 31L996.14 31L997.13 28.6ZM1018.35 24.29L1018.36 31L1020.8 31L1020.78 19.79L1018.64 19.79L1014.51 26.76L1010.32 19.79L1008.17 19.79L1008.17 31L1010.61 31L1010.61 24.42L1013.9 29.81L1015.05 29.81L1018.35 24.29ZM1032.89 31L1032.89 28.92L1026.79 28.92L1026.79 26.32L1032 26.32L1032 24.31L1026.79 24.31L1026.79 21.87L1032.68 21.87L1032.68 19.79L1024.22 19.79L1024.22 31L1032.89 31ZM1045.9 31L1045.9 19.79L1043.31 19.79L1043.31 24.21L1038.22 24.21L1038.22 19.79L1035.63 19.79L1035.63 31L1038.22 31L1038.22 26.4L1043.31 26.4L1043.31 31L1045.9 31ZM1057.91 24.39C1057.18 23.78 1056.13 23.48 1054.77 23.48L1051.92 23.48L1051.92 19.79L1049.34 19.79L1049.34 31L1054.4 31C1055.86 31 1056.99 30.66 1057.8 30C1057.99 29.83 1058.16 29.65 1058.31 29.45C1058.77 28.83 1059 28.05 1059 27.09C1059 26.13 1058.77 25.37 1058.31 24.79C1058.18 24.64 1058.06 24.51 1057.91 24.39ZM1081.6 31L1081.6 19.79L1079 19.79L1079 24.21L1073.92 24.21L1073.92 19.79L1071.31 19.79L1071.31 31L1073.92 31L1073.92 26.4L1079 26.4L1079 31L1081.6 31ZM1107.28 26.48L1108.91 26.48L1111.42 31L1114.41 31L1111.06 25.14L1114.18 19.79L1111.47 19.79L1108.93 24.32L1107.28 24.32L1107.28 19.79L1104.73 19.79L1104.73 24.32L1103.02 24.32L1100.51 19.79L1097.77 19.79L1100.92 25.14L1097.56 31L1100.56 31L1103.06 26.48L1104.73 26.48L1104.73 31L1107.28 31L1107.28 26.48ZM1126.56 31L1126.56 19.79L1123.98 19.79L1123.98 24.21L1118.89 24.21L1118.89 19.79L1116.3 19.79L1116.3 31L1118.89 31L1118.89 26.4L1123.98 26.4L1123.98 31L1126.56 31ZM1132.59 19.79L1130.01 19.79L1130.01 31L1132.46 31L1137.8 23.71L1137.8 31L1140.36 31L1140.36 19.79L1137.93 19.79L1132.59 27.09L1132.59 19.79ZM1155.53 33.36L1155.53 28.88L1153.93 28.88L1153.93 19.79L1151.36 19.79L1151.36 28.88L1146.37 28.88L1146.37 19.79L1143.79 19.79L1143.79 31L1153.15 31L1153.15 33.36L1155.53 33.36ZM1166.43 24.39C1165.72 23.78 1164.68 23.48 1163.31 23.48L1160.46 23.48L1160.46 19.79L1157.88 19.79L1157.88 31L1162.93 31C1164.4 31 1165.53 30.66 1166.34 30C1166.54 29.83 1166.71 29.65 1166.86 29.45C1167.31 28.83 1167.55 28.05 1167.55 27.09C1167.55 26.13 1167.31 25.37 1166.85 24.79C1166.73 24.64 1166.59 24.51 1166.43 24.39ZM1171.55 19.79L1168.97 19.79L1168.97 31L1171.55 31L1171.55 19.79ZM1194.01 19.79L1184.97 19.79L1184.97 31L1190.28 31C1191.71 31 1192.82 30.69 1193.63 30.07C1193.91 29.85 1194.14 29.59 1194.31 29.31C1194.64 28.79 1194.81 28.18 1194.81 27.46C1194.81 26.7 1194.63 26.06 1194.27 25.56C1194.13 25.36 1193.96 25.17 1193.75 25.01C1193.04 24.44 1192 24.16 1190.65 24.16L1187.55 24.16L1187.55 21.86L1194.01 21.86L1194.01 19.79ZM1202.35 28.66L1207.12 19.79L1204.56 19.79L1201.5 25.81L1198.52 19.79L1195.76 19.79L1200.17 28.02L1200.06 28.15C1199.86 28.47 1199.63 28.72 1199.37 28.88C1199.3 28.92 1199.24 28.95 1199.17 28.98C1198.97 29.06 1198.75 29.11 1198.51 29.11C1198.21 29.11 1197.84 29.04 1197.39 28.9L1196.77 30.87C1197.4 31.12 1198 31.25 1198.59 31.25C1198.9 31.25 1199.21 31.21 1199.52 31.13C1199.93 31.02 1200.31 30.84 1200.68 30.6C1201.32 30.16 1201.89 29.51 1202.35 28.66ZM1219.16 24.29L1219.18 31L1221.61 31L1221.6 19.79L1219.43 19.79L1215.31 26.76L1211.13 19.79L1208.99 19.79L1208.99 31L1211.42 31L1211.42 24.42L1214.72 29.81L1215.87 29.81L1219.16 24.29ZM1227.42 28.6L1232.62 28.6L1233.61 31L1236.31 31L1231.31 19.79L1228.77 19.79L1223.77 31L1226.43 31L1227.42 28.6ZM1241.02 21.91L1246.35 21.91L1246.37 19.79L1238.46 19.79L1238.46 31L1241.04 31L1241.02 21.91ZM1248.8 28.6L1254 28.6L1254.99 31L1257.71 31L1252.68 19.79L1250.14 19.79L1245.15 31L1247.81 31L1248.8 28.6ZM1091.78 28.72C1091.35 28.89 1090.88 28.98 1090.38 28.98C1089.87 28.98 1089.4 28.89 1088.96 28.71C1088.82 28.65 1088.71 28.59 1088.59 28.52C1088.34 28.38 1088.12 28.21 1087.92 28.03C1087.68 27.8 1087.49 27.54 1087.31 27.25C1087.3 27.2 1087.28 27.15 1087.25 27.1C1087 26.59 1086.88 26.02 1086.88 25.39C1086.88 24.77 1087 24.21 1087.24 23.71C1087.27 23.65 1087.29 23.59 1087.31 23.54C1087.5 23.23 1087.71 22.96 1087.93 22.74C1088.14 22.56 1088.36 22.4 1088.59 22.27C1088.71 22.19 1088.82 22.13 1088.96 22.08C1089.4 21.9 1089.87 21.81 1090.38 21.81C1090.88 21.81 1091.35 21.89 1091.78 22.07C1091.91 22.13 1092.04 22.19 1092.17 22.27C1092.41 22.4 1092.62 22.56 1092.81 22.74C1093.06 22.96 1093.26 23.23 1093.43 23.54C1093.46 23.59 1093.49 23.65 1093.52 23.71C1093.77 24.21 1093.89 24.77 1093.89 25.39C1093.89 26.02 1093.76 26.59 1093.51 27.1C1093.48 27.15 1093.46 27.2 1093.43 27.25C1093.26 27.54 1093.06 27.8 1092.84 28.03C1092.64 28.21 1092.42 28.38 1092.17 28.52C1092.04 28.59 1091.91 28.66 1091.78 28.72ZM999.74 22.34L1001.52 26.63L997.96 26.63L999.74 22.34ZM1230.03 22.34L1231.81 26.63L1228.25 26.63L1230.03 22.34ZM1251.41 22.34L1253.18 26.63L1249.63 26.63L1251.41 22.34ZM1055.81 28.58C1055.44 28.9 1054.92 29.07 1054.25 29.07L1051.92 29.07L1051.92 25.39L1054.25 25.39C1055.11 25.39 1055.71 25.6 1056.06 26.02C1056.29 26.3 1056.4 26.67 1056.4 27.14C1056.4 27.64 1056.28 28.05 1056.03 28.37C1055.96 28.44 1055.89 28.51 1055.81 28.58ZM1164.37 28.58C1164 28.9 1163.47 29.07 1162.8 29.07L1160.46 29.07L1160.46 25.39L1162.8 25.39C1163.66 25.39 1164.26 25.6 1164.6 26.02C1164.81 26.3 1164.93 26.67 1164.93 27.14C1164.93 27.64 1164.81 28.05 1164.56 28.37C1164.51 28.44 1164.43 28.51 1164.37 28.58ZM1191.66 28.68C1191.31 28.94 1190.8 29.07 1190.14 29.07L1187.55 29.07L1187.55 26.07L1190.14 26.07C1191.04 26.07 1191.64 26.28 1191.93 26.71C1192.1 26.93 1192.18 27.2 1192.18 27.54C1192.18 27.87 1192.11 28.15 1191.96 28.38C1191.88 28.49 1191.78 28.59 1191.66 28.68ZM1062.85 28.21C1062.62 28.08 1062.35 28.02 1062.05 28.02C1061.75 28.02 1061.49 28.08 1061.26 28.2C1061.13 28.26 1061.02 28.34 1060.93 28.44C1060.84 28.53 1060.76 28.63 1060.68 28.73C1060.56 28.96 1060.49 29.23 1060.49 29.55C1060.49 29.82 1060.55 30.06 1060.66 30.28C1060.67 30.32 1060.68 30.36 1060.72 30.4C1060.79 30.51 1060.87 30.61 1060.98 30.69C1061.09 30.78 1061.22 30.86 1061.36 30.92L1060.65 33.46L1062.24 33.46L1063.15 31.16C1063.32 30.72 1063.44 30.4 1063.5 30.19C1063.55 29.97 1063.56 29.76 1063.56 29.55C1063.56 29.23 1063.5 28.95 1063.37 28.72C1063.31 28.62 1063.24 28.52 1063.15 28.44C1063.06 28.35 1062.96 28.27 1062.85 28.21ZM1176.49 28.21C1176.26 28.08 1175.99 28.02 1175.68 28.02C1175.39 28.02 1175.14 28.08 1174.91 28.2C1174.79 28.26 1174.68 28.34 1174.56 28.44C1174.48 28.53 1174.4 28.63 1174.35 28.73C1174.21 28.96 1174.14 29.23 1174.14 29.55C1174.14 29.82 1174.18 30.06 1174.3 30.28C1174.31 30.32 1174.34 30.36 1174.37 30.4C1174.43 30.51 1174.53 30.61 1174.63 30.69C1174.74 30.78 1174.87 30.86 1175.01 30.92L1174.3 33.46L1175.89 33.46L1176.8 31.16C1176.97 30.72 1177.09 30.4 1177.15 30.19C1177.19 29.97 1177.23 29.76 1177.23 29.55C1177.23 29.23 1177.16 28.95 1177.01 28.72C1176.94 28.62 1176.88 28.52 1176.8 28.44C1176.71 28.35 1176.6 28.27 1176.49 28.21Z" fill="#202027" fill-opacity="1.000000" fill-rule="evenodd"/>
				<path id="Star" d="M1295.6 16L1292.99 23.05L1285.93 25.66L1292.99 28.28L1295.6 35.33L1298.21 28.28L1305.27 25.66L1298.21 23.05L1295.6 16Z" fill="#202027" fill-opacity="1.000000" fill-rule="evenodd"/>
				<path id="Генератор случайных цветов" d="M1513.48 18.15C1513.97 18.76 1514.85 19.07 1516.1 19.07C1517.14 19.07 1517.91 18.86 1518.42 18.45C1518.55 18.35 1518.66 18.23 1518.75 18.11C1519.04 17.72 1519.2 17.23 1519.21 16.62L1517.43 16.62C1517.42 16.95 1517.34 17.21 1517.17 17.41C1516.95 17.61 1516.53 17.79 1516.1 17.79C1515.63 17.79 1515.28 17.68 1515.06 17.44C1514.88 17.24 1514.79 16.97 1514.78 16.62L1513 16.62C1513.01 17.25 1513.17 17.76 1513.48 18.15ZM1418.29 30.6C1419.14 30.99 1420.07 31.19 1421.1 31.19C1422.14 31.19 1423.08 30.99 1423.93 30.59C1424.03 30.54 1424.13 30.49 1424.23 30.44C1424.79 30.13 1425.28 29.76 1425.69 29.33C1425.97 29.03 1426.21 28.71 1426.42 28.36C1426.57 28.12 1426.7 27.86 1426.81 27.6C1427.09 26.92 1427.23 26.18 1427.23 25.39C1427.23 24.61 1427.09 23.88 1426.82 23.21C1426.71 22.94 1426.57 22.68 1426.42 22.43C1426.21 22.07 1425.96 21.74 1425.68 21.45C1425.27 21.01 1424.78 20.65 1424.23 20.36C1424.12 20.29 1424.02 20.24 1423.91 20.2C1423.06 19.79 1422.13 19.6 1421.1 19.6C1420.08 19.6 1419.15 19.79 1418.31 20.18C1418.19 20.23 1418.07 20.29 1417.95 20.36C1417.38 20.66 1416.89 21.03 1416.48 21.48C1416.21 21.76 1415.97 22.08 1415.76 22.43C1415.62 22.66 1415.5 22.9 1415.39 23.16C1415.11 23.84 1414.97 24.59 1414.97 25.39C1414.97 26.2 1415.11 26.96 1415.4 27.66C1415.51 27.9 1415.63 28.13 1415.76 28.36C1415.97 28.7 1416.2 29.02 1416.47 29.3C1416.89 29.75 1417.38 30.13 1417.95 30.44C1418.06 30.5 1418.18 30.55 1418.29 30.6ZM1449.89 30.66C1450.7 31.01 1451.59 31.19 1452.55 31.19C1453.52 31.19 1454.4 31.01 1455.19 30.67C1455.66 30.47 1456.09 30.21 1456.46 29.9C1456.72 29.68 1456.96 29.45 1457.18 29.19L1455.51 27.65C1455.09 28.14 1454.61 28.5 1454.08 28.72C1453.65 28.89 1453.19 28.98 1452.7 28.98C1452.08 28.98 1451.52 28.85 1451.02 28.61C1450.96 28.58 1450.9 28.55 1450.84 28.52C1450.56 28.36 1450.31 28.18 1450.1 27.96C1449.89 27.75 1449.72 27.51 1449.57 27.25C1449.54 27.2 1449.52 27.15 1449.49 27.1C1449.24 26.59 1449.11 26.02 1449.11 25.39C1449.11 24.77 1449.23 24.21 1449.48 23.71C1449.51 23.65 1449.54 23.59 1449.57 23.54C1449.72 23.26 1449.91 23.01 1450.12 22.8C1450.33 22.59 1450.57 22.41 1450.84 22.27C1450.9 22.23 1450.96 22.2 1451.02 22.18C1451.52 21.93 1452.08 21.81 1452.7 21.81C1453.21 21.81 1453.68 21.9 1454.11 22.08C1454.63 22.29 1455.1 22.64 1455.51 23.12L1457.18 21.59C1456.97 21.34 1456.75 21.12 1456.51 20.92C1456.12 20.59 1455.69 20.32 1455.2 20.12C1454.42 19.77 1453.54 19.6 1452.57 19.6C1451.56 19.6 1450.64 19.79 1449.81 20.17C1449.69 20.23 1449.57 20.29 1449.46 20.35C1448.93 20.63 1448.47 20.97 1448.08 21.38C1447.77 21.68 1447.51 22.03 1447.28 22.41C1447.16 22.61 1447.06 22.81 1446.97 23.01C1446.65 23.73 1446.49 24.53 1446.49 25.39C1446.49 26.25 1446.65 27.04 1446.96 27.76C1447.05 27.97 1447.16 28.18 1447.28 28.38C1447.51 28.75 1447.77 29.09 1448.07 29.4C1448.47 29.81 1448.93 30.16 1449.46 30.44C1449.6 30.52 1449.74 30.59 1449.89 30.66ZM1624.14 30.6C1624.99 30.99 1625.93 31.19 1626.96 31.19C1627.99 31.19 1628.94 30.99 1629.79 30.59C1629.89 30.54 1629.99 30.49 1630.09 30.44C1630.65 30.13 1631.14 29.76 1631.55 29.33C1631.82 29.03 1632.07 28.71 1632.28 28.36C1632.43 28.12 1632.55 27.86 1632.66 27.6C1632.94 26.92 1633.08 26.18 1633.08 25.39C1633.08 24.61 1632.94 23.88 1632.67 23.21C1632.56 22.94 1632.43 22.68 1632.28 22.43C1632.07 22.07 1631.82 21.74 1631.54 21.45C1631.13 21.01 1630.64 20.65 1630.09 20.36C1629.98 20.29 1629.88 20.24 1629.77 20.2C1628.92 19.79 1627.99 19.6 1626.96 19.6C1625.94 19.6 1625.01 19.79 1624.17 20.18C1624.04 20.23 1623.92 20.29 1623.81 20.36C1623.24 20.66 1622.75 21.03 1622.34 21.48C1622.07 21.76 1621.83 22.08 1621.62 22.43C1621.48 22.66 1621.36 22.9 1621.25 23.16C1620.97 23.84 1620.83 24.59 1620.83 25.39C1620.83 26.2 1620.97 26.96 1621.26 27.66C1621.36 27.9 1621.48 28.13 1621.62 28.36C1621.83 28.7 1622.06 29.02 1622.33 29.3C1622.74 29.75 1623.24 30.13 1623.81 30.44C1623.92 30.5 1624.03 30.55 1624.14 30.6ZM1336.62 21.91L1341.95 21.91L1341.96 19.79L1334.06 19.79L1334.06 31L1336.63 31L1336.62 21.91ZM1352.86 31L1352.86 28.92L1346.76 28.92L1346.76 26.32L1351.96 26.32L1351.96 24.31L1346.76 24.31L1346.76 21.87L1352.65 21.87L1352.65 19.79L1344.18 19.79L1344.18 31L1352.86 31ZM1365.87 31L1365.87 19.79L1363.27 19.79L1363.27 24.21L1358.19 24.21L1358.19 19.79L1355.59 19.79L1355.59 31L1358.19 31L1358.19 26.4L1363.27 26.4L1363.27 31L1365.87 31ZM1377.98 31L1377.98 28.92L1371.88 28.92L1371.88 26.32L1377.08 26.32L1377.08 24.31L1371.88 24.31L1371.88 21.87L1377.77 21.87L1377.77 19.79L1369.3 19.79L1369.3 31L1377.98 31ZM1388.14 20.29C1387.41 19.96 1386.55 19.79 1385.56 19.79L1380.71 19.79L1380.71 31L1383.31 31L1383.31 27.91L1385.56 27.91C1386.55 27.91 1387.41 27.74 1388.14 27.42C1388.71 27.16 1389.18 26.82 1389.55 26.39C1389.65 26.27 1389.74 26.14 1389.83 26.01C1389.88 25.92 1389.94 25.83 1389.99 25.74C1390.28 25.19 1390.42 24.56 1390.42 23.86C1390.42 23.11 1390.26 22.45 1389.94 21.89C1389.91 21.82 1389.87 21.76 1389.83 21.7C1389.76 21.58 1389.68 21.47 1389.59 21.37C1389.22 20.91 1388.73 20.55 1388.14 20.29ZM1394.6 28.6L1399.8 28.6L1400.79 31L1403.51 31L1398.51 19.79L1395.95 19.79L1390.95 31L1393.61 31L1394.6 28.6ZM1410.06 21.91L1413.64 21.91L1413.64 19.79L1403.93 19.79L1403.93 21.91L1407.5 21.91L1407.5 31L1410.06 31L1410.06 21.91ZM1437.29 20.29C1436.56 19.96 1435.7 19.79 1434.71 19.79L1429.86 19.79L1429.86 31L1432.46 31L1432.46 27.91L1434.71 27.91C1435.7 27.91 1436.56 27.74 1437.29 27.42C1437.87 27.16 1438.34 26.82 1438.71 26.39C1438.81 26.27 1438.9 26.14 1438.98 26.01C1439.04 25.92 1439.09 25.83 1439.14 25.74C1439.43 25.19 1439.58 24.56 1439.58 23.86C1439.58 23.11 1439.42 22.45 1439.1 21.89C1439.06 21.82 1439.02 21.76 1438.98 21.7C1438.91 21.58 1438.83 21.47 1438.74 21.37C1438.37 20.91 1437.88 20.55 1437.29 20.29ZM1469.22 31L1469.22 19.79L1460.62 19.79L1460.46 24.34C1460.39 25.89 1460.24 27.03 1459.99 27.77C1459.83 28.25 1459.59 28.57 1459.27 28.74C1459.1 28.82 1458.91 28.87 1458.7 28.87C1458.53 28.87 1458.37 28.84 1458.23 28.8L1458.07 31C1458.58 31.11 1459 31.17 1459.35 31.17C1460.01 31.17 1460.56 31.01 1460.99 30.7C1461.12 30.6 1461.24 30.5 1461.35 30.38C1461.82 29.85 1462.16 29.09 1462.36 28.11C1462.57 27.12 1462.69 25.83 1462.74 24.24L1462.83 21.91L1466.67 21.91L1466.67 31L1469.22 31ZM1478.01 28.66L1482.78 19.79L1480.23 19.79L1477.16 25.81L1474.18 19.79L1471.42 19.79L1475.83 28.02L1475.74 28.15C1475.53 28.47 1475.29 28.72 1475.03 28.88C1474.97 28.92 1474.9 28.95 1474.83 28.98C1474.63 29.06 1474.41 29.11 1474.17 29.11C1473.87 29.11 1473.5 29.04 1473.05 28.9L1472.43 30.87C1473.06 31.12 1473.66 31.25 1474.25 31.25C1474.57 31.25 1474.88 31.21 1475.18 31.13C1475.59 31.02 1475.98 30.84 1476.35 30.6C1477 30.16 1477.55 29.51 1478.01 28.66ZM1494.09 31L1494.09 19.79L1491.53 19.79L1491.53 24.83C1491.34 24.91 1491.14 24.99 1490.93 25.06C1490.36 25.24 1489.76 25.33 1489.13 25.33C1488.35 25.33 1487.76 25.13 1487.35 24.75C1487 24.36 1486.73 23.72 1486.73 23.01L1486.73 19.79L1484.17 19.79L1484.17 23.3C1484.17 24.41 1484.44 25.31 1484.98 26C1485.1 26.14 1485.23 26.28 1485.37 26.41C1486.17 27.13 1487.32 27.49 1488.83 27.49C1489.66 27.49 1490.56 27.31 1491.53 26.96L1491.53 31L1494.09 31ZM1499.9 28.6L1505.1 28.6L1506.09 31L1508.81 31L1503.8 19.79L1501.24 19.79L1496.25 31L1498.91 31L1499.9 28.6ZM1513.51 19.79L1510.94 19.79L1510.94 31L1513.39 31L1518.73 23.71L1518.73 31L1521.29 31L1521.29 19.79L1518.86 19.79L1513.51 27.09L1513.51 19.79ZM1534.99 31L1534.99 19.79L1532.39 19.79L1532.39 24.21L1527.31 24.21L1527.31 19.79L1524.71 19.79L1524.71 31L1527.31 31L1527.31 26.4L1532.39 26.4L1532.39 31L1534.99 31ZM1546.99 24.39C1546.26 23.78 1545.22 23.48 1543.85 23.48L1541 23.48L1541 19.79L1538.42 19.79L1538.42 31L1543.48 31C1544.94 31 1546.07 30.66 1546.88 30C1547.08 29.83 1547.25 29.65 1547.4 29.45C1547.86 28.83 1548.09 28.05 1548.09 27.09C1548.09 26.13 1547.86 25.37 1547.39 24.79C1547.27 24.64 1547.14 24.51 1546.99 24.39ZM1552.09 19.79L1549.51 19.79L1549.51 31L1552.09 31L1552.09 19.79ZM1559.85 23.19L1557.53 19.79L1554.54 19.79L1558.28 25.27L1554.28 31L1557.27 31L1559.85 27.28L1562.46 31L1565.51 31L1561.48 25.16L1565.21 19.79L1562.17 19.79L1559.85 23.19ZM1584.62 33.36L1584.62 28.88L1583.02 28.88L1583.02 19.79L1580.44 19.79L1580.44 28.88L1575.45 28.88L1575.45 19.79L1572.87 19.79L1572.87 31L1582.24 31L1582.24 33.36L1584.62 33.36ZM1596.29 26.14C1595.93 25.68 1595.41 25.36 1594.73 25.16C1595.15 24.95 1595.49 24.68 1595.76 24.35C1595.81 24.29 1595.85 24.22 1595.89 24.16C1595.96 24.06 1596.01 23.96 1596.06 23.86C1596.23 23.5 1596.31 23.11 1596.31 22.69C1596.31 22.17 1596.2 21.72 1595.97 21.34C1595.79 21.03 1595.54 20.77 1595.22 20.55C1594.5 20.04 1593.49 19.79 1592.19 19.79L1586.97 19.79L1586.97 31L1592.49 31C1593.89 31 1594.96 30.72 1595.71 30.16C1596.04 29.92 1596.29 29.65 1596.47 29.33C1596.72 28.91 1596.84 28.41 1596.84 27.84C1596.84 27.3 1596.72 26.83 1596.49 26.43C1596.43 26.33 1596.36 26.22 1596.29 26.14ZM1608.2 31L1608.2 28.92L1602.1 28.92L1602.1 26.32L1607.31 26.32L1607.31 24.31L1602.1 24.31L1602.1 21.87L1607.99 21.87L1607.99 19.79L1599.53 19.79L1599.53 31L1608.2 31ZM1615.91 21.91L1619.5 21.91L1619.5 19.79L1609.78 19.79L1609.78 21.91L1613.35 21.91L1613.35 31L1615.91 31L1615.91 21.91ZM1645.04 26.14C1644.68 25.68 1644.16 25.36 1643.48 25.16C1643.9 24.95 1644.24 24.68 1644.51 24.35C1644.56 24.29 1644.6 24.22 1644.65 24.16C1644.71 24.06 1644.76 23.96 1644.81 23.86C1644.98 23.5 1645.06 23.11 1645.06 22.69C1645.06 22.17 1644.95 21.72 1644.73 21.34C1644.55 21.03 1644.3 20.77 1643.97 20.55C1643.25 20.04 1642.24 19.79 1640.94 19.79L1635.72 19.79L1635.72 31L1641.24 31C1642.64 31 1643.72 30.72 1644.47 30.16C1644.79 29.92 1645.04 29.65 1645.23 29.33C1645.48 28.91 1645.6 28.41 1645.6 27.84C1645.6 27.3 1645.48 26.83 1645.24 26.43C1645.19 26.33 1645.11 26.22 1645.04 26.14ZM1591.96 24.44L1589.55 24.44L1589.55 21.71L1591.96 21.71C1592.51 21.71 1592.94 21.83 1593.23 22.07C1593.32 22.14 1593.4 22.22 1593.47 22.32C1593.61 22.52 1593.68 22.77 1593.68 23.07C1593.68 23.41 1593.6 23.68 1593.43 23.9C1593.38 23.97 1593.31 24.03 1593.24 24.09C1592.95 24.32 1592.53 24.44 1591.96 24.44ZM1640.71 24.44L1638.3 24.44L1638.3 21.71L1640.71 21.71C1641.26 21.71 1641.69 21.83 1641.99 22.07C1642.08 22.14 1642.15 22.22 1642.22 22.32C1642.36 22.52 1642.43 22.77 1642.43 23.07C1642.43 23.41 1642.35 23.68 1642.18 23.9C1642.13 23.97 1642.06 24.03 1641.99 24.09C1641.7 24.32 1641.28 24.44 1640.71 24.44ZM1422.49 28.72C1422.06 28.89 1421.6 28.98 1421.1 28.98C1420.59 28.98 1420.11 28.89 1419.68 28.71C1419.55 28.65 1419.43 28.59 1419.31 28.52C1419.06 28.38 1418.84 28.21 1418.64 28.03C1418.41 27.8 1418.22 27.54 1418.05 27.25C1418.02 27.2 1418 27.15 1417.97 27.1C1417.72 26.59 1417.59 26.02 1417.59 25.39C1417.59 24.77 1417.71 24.21 1417.96 23.71C1417.99 23.65 1418.02 23.59 1418.05 23.54C1418.22 23.23 1418.42 22.96 1418.67 22.74C1418.86 22.56 1419.07 22.4 1419.31 22.27C1419.43 22.19 1419.55 22.13 1419.68 22.08C1420.11 21.9 1420.59 21.81 1421.1 21.81C1421.6 21.81 1422.06 21.89 1422.49 22.07C1422.63 22.13 1422.76 22.19 1422.89 22.27C1423.12 22.4 1423.34 22.56 1423.53 22.74C1423.77 22.96 1423.98 23.23 1424.15 23.54C1424.18 23.59 1424.21 23.65 1424.24 23.71C1424.48 24.21 1424.6 24.77 1424.6 25.39C1424.6 26.02 1424.48 26.59 1424.23 27.1C1424.2 27.15 1424.18 27.2 1424.15 27.25C1423.98 27.54 1423.79 27.8 1423.56 28.03C1423.36 28.21 1423.14 28.38 1422.89 28.52C1422.76 28.59 1422.63 28.66 1422.49 28.72ZM1628.35 28.72C1627.92 28.89 1627.46 28.98 1626.96 28.98C1626.45 28.98 1625.97 28.89 1625.54 28.71C1625.41 28.65 1625.28 28.59 1625.16 28.52C1624.91 28.38 1624.69 28.21 1624.5 28.03C1624.27 27.8 1624.07 27.54 1623.91 27.25C1623.88 27.2 1623.85 27.15 1623.83 27.1C1623.58 26.59 1623.45 26.02 1623.45 25.39C1623.45 24.77 1623.57 24.21 1623.81 23.71C1623.84 23.65 1623.88 23.59 1623.91 23.54C1624.08 23.23 1624.28 22.96 1624.52 22.74C1624.71 22.56 1624.93 22.4 1625.16 22.27C1625.28 22.19 1625.41 22.13 1625.54 22.08C1625.97 21.9 1626.45 21.81 1626.96 21.81C1627.46 21.81 1627.92 21.89 1628.35 22.07C1628.48 22.13 1628.62 22.19 1628.75 22.27C1628.98 22.4 1629.2 22.56 1629.39 22.74C1629.63 22.96 1629.83 23.23 1630 23.54C1630.03 23.59 1630.06 23.65 1630.09 23.71C1630.34 24.21 1630.46 24.77 1630.46 25.39C1630.46 26.02 1630.33 26.59 1630.08 27.1C1630.06 27.15 1630.03 27.2 1630 27.25C1629.84 27.54 1629.64 27.8 1629.41 28.03C1629.21 28.21 1628.99 28.38 1628.75 28.52C1628.62 28.59 1628.48 28.66 1628.35 28.72ZM1387.19 25.29C1386.78 25.63 1386.19 25.8 1385.42 25.8L1383.31 25.8L1383.31 21.91L1385.42 21.91C1386.19 21.91 1386.78 22.07 1387.19 22.41C1387.3 22.5 1387.39 22.6 1387.47 22.71C1387.69 23.01 1387.8 23.4 1387.8 23.86C1387.8 24.3 1387.7 24.67 1387.49 24.97C1387.4 25.09 1387.3 25.19 1387.19 25.29ZM1436.34 25.29C1435.94 25.63 1435.35 25.8 1434.57 25.8L1432.46 25.8L1432.46 21.91L1434.57 21.91C1435.35 21.91 1435.94 22.07 1436.34 22.41C1436.45 22.5 1436.54 22.6 1436.62 22.71C1436.84 23.01 1436.95 23.4 1436.95 23.86C1436.95 24.3 1436.85 24.67 1436.64 24.97C1436.55 25.09 1436.45 25.19 1436.34 25.29ZM1397.21 22.34L1398.99 26.63L1395.44 26.63L1397.21 22.34ZM1502.51 22.34L1504.28 26.63L1500.73 26.63L1502.51 22.34ZM1544.91 28.58C1544.54 28.9 1544.01 29.07 1543.34 29.07L1541 29.07L1541 25.39L1543.34 25.39C1544.2 25.39 1544.8 25.6 1545.14 26.02C1545.37 26.3 1545.48 26.67 1545.48 27.14C1545.48 27.64 1545.36 28.05 1545.11 28.37C1545.05 28.44 1544.98 28.51 1544.91 28.58ZM1593.95 28.53C1593.66 28.89 1593.14 29.07 1592.39 29.07L1589.55 29.07L1589.55 26.24L1592.39 26.24C1593.16 26.24 1593.69 26.42 1593.97 26.8C1594.14 27.01 1594.22 27.29 1594.22 27.64C1594.22 28 1594.13 28.3 1593.95 28.53ZM1642.7 28.53C1642.41 28.89 1641.9 29.07 1641.15 29.07L1638.3 29.07L1638.3 26.24L1641.15 26.24C1641.92 26.24 1642.44 26.42 1642.72 26.8C1642.89 27.01 1642.97 27.29 1642.97 27.64C1642.97 28 1642.88 28.3 1642.7 28.53Z" fill="#202027" fill-opacity="1.000000" fill-rule="evenodd"/>
				<path id="Star" d="M1683.73 16L1681.12 23.05L1674.06 25.66L1681.12 28.28L1683.73 35.33L1686.34 28.28L1693.4 25.66L1686.34 23.05L1683.73 16Z" fill="#202027" fill-opacity="1.000000" fill-rule="evenodd"/>
			</g>
			<rect id="Frame 2043683043" x="0.269562" y="0.268599" rx="-0.268599" width="1716.865845" height="50.801933" fill="#000000" fill-opacity="0"/>
			<rect id="Frame 2043683043" x="0.269562" y="0.268599" rx="-0.268599" width="1716.865845" height="50.801933" stroke="#FFFFFF" stroke-opacity="0.200000" stroke-width="0.537198"/>
		</g>
	</g>
</svg>
